# xmcd CD database file
#
# Track frame offsets:
#	150
#	4819
#	74359
#	88757
#	154186
#	210089
#	251221
#
# Disc length: 4116 seconds
#
# Revision: 0
# Processed by: cddbd v1.4PL0 Copyright (c) Steve Scherf et al.
# Submitted via: CDex 1.51
#
DISCID=56101207
DTITLE=The Slip - The Paradies Boston, MA 4/20/02
DYEAR=2002
DGENRE=Jazz
TTITLE0=Intro
TTITLE1=Wolof
TTITLE2=Jam ->
TTITLE3=Nellie Jean
TTITLE4=Aptos
TTITLE5=In Your Dreams
TTITLE6=Air is the Body
EXTD=YEAR: 2002
EXTT0=
EXTT1=
EXTT2=
EXTT3=
EXTT4=
EXTT5=
EXTT6=
PLAYORDER=
